<svg width="32" height="32" xmlns="http://www.w3.org/2000/svg" version="1.1">
 <!-- Generator: Sketch 64 (93537) - https://sketch.com -->
 <title>icon</title>
 <desc>Created with Sketch.</desc>
 <defs>
  <circle r="14.70297" cy="15" cx="15" id="path-1"/>
  <path id="path-3" d="m14.10891,20.52205c1.63237,0 3.1223,-0.60988 4.25435,-1.6142l5.44621,5.44613c-2.5285,2.39493 -5.94299,3.86384 -9.70056,3.86384c-3.82294,0 -7.29076,-1.52047 -9.83172,-3.98967l5.4429,-5.44303c1.14724,1.07715 2.69098,1.73693 4.38882,1.73693z"/>
  <path id="path-5" d="m24.22815,4.27719c2.4692,2.54096 3.98967,6.00878 3.98967,9.83172c0,3.75757 -1.46891,7.17206 -3.86384,9.70056l-5.44613,-5.44621c1.00432,-1.13205 1.6142,-2.62198 1.6142,-4.25435c0,-1.69784 -0.65978,-3.24158 -1.73693,-4.38882l5.44303,-5.4429z"/>
  <path id="path-7" d="m3.86408,4.4081l5.44612,5.4462c-1.00446,1.13209 -1.61443,2.62211 -1.61443,4.25461c0,1.56713 0.5621,3.00298 1.49569,4.11692l-5.45127,5.45142c-2.27274,-2.46164 -3.67992,-5.73439 -3.7383,-9.33502l-0.00189,-0.23332c0,-3.7577 1.46901,-7.17229 3.86408,-9.70081z"/>
  <path id="path-9" d="m14.10891,0c3.69247,0 7.05364,1.41846 9.56834,3.74019l-5.45142,5.45127c-1.11394,-0.93359 -2.54979,-1.49569 -4.11692,-1.49569c-1.6325,0 -3.12252,0.60997 -4.25461,1.61443l-5.4462,-5.44612c2.47609,-2.3454 5.80188,-3.80276 9.46749,-3.86219l0.23332,-0.00189z"/>
  <circle r="5.64356" cy="14.10891" cx="14.10891" id="path-11"/>
 </defs>
 <g>
  <title>Layer 1</title>
  <ellipse ry="14.97459" rx="14.97459" id="svg_14" cy="16.14103" cx="16" stroke="#000" fill="#fff"/>
  <ellipse ry="5" rx="5" id="svg_18" cy="16" cx="16" stroke="#000" fill="#fff"/>
  <line stroke="#000" stroke-width="2" id="svg_19" y2="33.0846" x2="-0.81977" y1="-1.0846" x1="32.81978" fill="none"/>
  <line transform="rotate(-90 16 16)" stroke="#000" stroke-width="2" id="svg_20" y2="33.0846" x2="-0.81977" y1="-1.0846" x1="32.81978" fill="none"/>
 </g>
</svg>